<?xml version="1.0" encoding="UTF-8"?>
<svg xmlns="http://www.w3.org/2000/svg" xmlns:xlink="http://www.w3.org/1999/xlink" width="37px" height="36px" viewBox="0 0 36 36" version="1.1">
<defs>
<clipPath id="clip1">
  <path d="M 0.00390625 0 L 35.890625 0 L 35.890625 35.882812 L 0.00390625 35.882812 Z M 0.00390625 0 "/>
</clipPath>
<clipPath id="clip2">
  <path d="M 7.96875 3.808594 L 27.921875 3.808594 L 27.921875 32.078125 L 7.96875 32.078125 Z M 7.96875 3.808594 "/>
</clipPath>
</defs>
<g id="surface1">
<g clip-path="url(#clip1)" clip-rule="nonzero">
<path style=" stroke:none;fill-rule:nonzero;fill:rgb(50.196078%,30.196078%,93.333333%);fill-opacity:1;" d="M 35.804688 7.695312 C 35.636719 3.972656 35.15625 2.9375 35.15625 2.9375 C 33.679688 -0.898438 31.835938 -0.0742188 30.179688 0.476562 C 27.257812 0.5 24.347656 1.320312 21.433594 1.757812 C 15.316406 1.828125 9.144531 0.722656 3.054688 3.441406 C 2.484375 4.277344 -0.589844 3.605469 0.105469 8.171875 C 0.285156 10.074219 0.949219 12.179688 0.929688 13.925781 C 1.023438 14.230469 1.148438 13.53125 1.203125 13.96875 C 1.390625 15.152344 1.699219 14.59375 1.953125 15.296875 C 1.601562 17.164062 1.855469 18.722656 2.09375 20.351562 C 1.667969 20.777344 1.125 20.578125 0.878906 21.984375 C 0.855469 23.003906 0.71875 22.8125 0.566406 22.765625 C 0.457031 22.738281 0.238281 22.847656 0.273438 23.167969 C 0.402344 24.265625 -0.140625 24.898438 0.199219 25.96875 C -0.0351562 27.132812 0.359375 28.136719 0.304688 29.398438 C 0.300781 29.648438 0.335938 29.867188 0.394531 29.925781 C 0.65625 30.246094 0.277344 30.871094 0.316406 31.550781 C 3 36.183594 5.910156 32.980469 8.65625 35.109375 C 9.371094 33.621094 8.835938 35.640625 9.121094 35.328125 C 9.34375 34.960938 9.503906 36.472656 9.753906 35.617188 C 9.792969 35.371094 9.734375 34.789062 9.875 34.902344 C 9.945312 34.960938 10.011719 34.945312 10.019531 34.605469 C 10.035156 34.089844 9.902344 34.410156 9.867188 34.140625 C 10.25 32.785156 10.15625 36.011719 10.515625 35.878906 C 10.496094 35.484375 10.394531 34.917969 10.609375 34.992188 C 10.820312 34.425781 10.828125 33.957031 11.015625 35.230469 C 11.023438 35.503906 11.054688 35.699219 11.109375 35.832031 C 11.699219 34.449219 12.289062 36.324219 12.90625 35.699219 C 13.285156 35.011719 13.652344 36.070312 14.035156 35.8125 C 14.171875 35.601562 14.308594 35.230469 14.4375 35.855469 C 16.027344 35.988281 17.722656 35.429688 19.230469 35.878906 C 23.261719 35.042969 27.570312 36.21875 31.820312 35.117188 C 32.820312 34.691406 33.863281 34.089844 34.839844 33.605469 C 34.839844 33.605469 35.628906 32.28125 35.628906 26.320312 C 35.628906 20.359375 35.796875 21.105469 35.824219 16.359375 C 35.847656 11.613281 35.96875 11.421875 35.796875 7.695312 Z M 35.804688 7.695312 "/>
</g>
<g clip-path="url(#clip2)" clip-rule="nonzero">
<path style=" stroke:none;fill-rule:nonzero;fill:rgb(100%,100%,100%);fill-opacity:1;" d="M 27.921875 11.5625 C 27.921875 13.273438 27.535156 14.777344 26.765625 16.066406 C 25.992188 17.359375 24.917969 18.363281 23.535156 19.070312 C 22.144531 19.785156 20.535156 20.140625 18.707031 20.140625 C 18.480469 20.140625 18.179688 20.113281 17.808594 20.054688 C 17.4375 19.996094 17.136719 19.910156 16.910156 19.792969 C 16.851562 19.734375 16.738281 19.625 16.566406 19.460938 C 16.394531 19.304688 16.308594 19.097656 16.308594 18.835938 C 16.308594 18.660156 16.378906 18.589844 16.523438 18.617188 C 16.75 18.675781 16.996094 18.738281 17.25 18.808594 C 17.507812 18.882812 17.792969 18.921875 18.109375 18.921875 C 19.792969 18.921875 21.207031 18.347656 22.351562 17.199219 C 23.492188 16.054688 24.066406 14.421875 24.066406 12.300781 C 24.066406 10.183594 23.492188 8.484375 22.351562 7.207031 C 21.207031 5.929688 19.480469 5.289062 17.164062 5.289062 C 16.910156 5.289062 16.515625 5.304688 15.992188 5.335938 C 15.460938 5.363281 15.152344 5.480469 15.066406 5.683594 C 14.953125 5.945312 14.890625 6.386719 14.878906 7.007812 C 14.859375 7.632812 14.851562 8.265625 14.851562 8.90625 L 14.851562 27.023438 C 14.851562 27.660156 14.859375 28.257812 14.878906 28.808594 C 14.890625 29.359375 14.953125 29.808594 15.066406 30.15625 C 15.125 30.304688 15.351562 30.433594 15.75 30.550781 C 16.152344 30.664062 16.574219 30.742188 17.019531 30.785156 C 17.460938 30.832031 17.765625 30.855469 17.9375 30.855469 C 18.023438 30.96875 18.074219 31.171875 18.089844 31.464844 C 18.101562 31.753906 18.050781 31.957031 17.9375 32.074219 C 17.082031 32.015625 16.261719 31.964844 15.476562 31.917969 C 14.6875 31.875 13.878906 31.855469 13.050781 31.855469 C 12.253906 31.855469 11.445312 31.875 10.636719 31.917969 C 9.816406 31.964844 8.980469 32.015625 8.125 32.074219 C 8.011719 31.957031 7.957031 31.753906 7.96875 31.464844 C 7.988281 31.171875 8.039062 30.96875 8.125 30.855469 C 8.296875 30.855469 8.605469 30.832031 9.050781 30.785156 C 9.488281 30.742188 9.917969 30.664062 10.335938 30.550781 C 10.746094 30.433594 10.964844 30.304688 10.996094 30.15625 C 11.109375 29.808594 11.175781 29.359375 11.191406 28.808594 C 11.203125 28.257812 11.210938 27.660156 11.210938 27.023438 L 11.210938 8.863281 C 11.210938 8.222656 11.203125 7.621094 11.191406 7.050781 C 11.175781 6.488281 11.109375 6.03125 10.996094 5.683594 C 10.964844 5.507812 10.746094 5.378906 10.335938 5.289062 C 9.917969 5.203125 9.488281 5.136719 9.050781 5.089844 C 8.605469 5.050781 8.296875 5.03125 8.125 5.03125 C 8.039062 4.914062 7.988281 4.710938 7.96875 4.417969 C 7.957031 4.128906 8.011719 3.925781 8.125 3.808594 C 8.980469 3.839844 9.816406 3.875 10.636719 3.914062 C 11.445312 3.960938 12.253906 3.984375 13.050781 3.984375 C 13.878906 3.984375 14.773438 3.96875 15.734375 3.941406 C 16.6875 3.910156 17.78125 3.898438 19.007812 3.898438 C 20.496094 3.898438 21.917969 4.195312 23.277344 4.785156 C 24.632812 5.382812 25.746094 6.25 26.621094 7.382812 C 27.488281 8.511719 27.921875 9.90625 27.921875 11.5625 Z M 27.921875 11.5625 "/>
</g>
</g>
</svg>
